<?xml version="1.0" encoding="UTF-8"?><svg xmlns="http://www.w3.org/2000/svg" xmlns:xlink="http://www.w3.org/1999/xlink" width="75" zoomAndPan="magnify" viewBox="0 0 75 74.999997" height="74.999997" preserveAspectRatio="xMidYMid meet" version="1.0"><path fill="rgb(45.489502%, 39.99939%, 41.569519%)" d="M 38.019531 0.351562 C 28.265625 0.351562 17.433594 4.003906 15.152344 15.933594 C 14.90625 17.203125 15.792969 17.855469 16.632812 18.039062 L 26.539062 19.050781 C 27.472656 19.003906 28.214844 18.132812 28.390625 17.214844 C 29.246094 13.105469 32.726562 11.074219 36.632812 11.074219 C 38.738281 11.074219 41.125 11.867188 42.371094 13.734375 C 43.8125 15.820312 43.574219 18.648438 43.574219 21.066406 L 43.574219 22.441406 C 37.628906 23.101562 29.878906 23.507812 24.320312 25.921875 C 17.894531 28.671875 13.394531 34.273438 13.394531 42.511719 C 13.394531 53.054688 20.136719 58.367188 28.761719 58.367188 C 36.050781 58.367188 39.988281 56.617188 45.613281 50.945312 C 47.472656 53.609375 48.132812 54.925781 51.539062 57.726562 C 52.304688 58.132812 53.269531 58.054688 53.945312 57.453125 L 53.945312 57.546875 C 55.988281 55.742188 59.722656 52.503906 61.8125 50.761719 C 62.644531 50.085938 62.464844 49.027344 61.8125 48.105469 C 59.9375 45.542969 58.015625 43.417969 58.015625 38.664062 L 58.015625 22.898438 C 58.015625 16.199219 58.464844 10.003906 53.480469 5.390625 C 49.542969 1.65625 43.003906 0.351562 38.019531 0.351562 Z M 40.796875 30.597656 C 41.722656 30.539062 42.644531 30.597656 43.574219 30.597656 L 43.574219 32.796875 C 43.574219 36.75 43.734375 40.003906 41.722656 43.519531 C 40.089844 46.375 37.46875 48.101562 34.59375 48.101562 C 30.660156 48.101562 28.386719 45.160156 28.386719 40.765625 C 28.386719 33.210938 34.328125 31.015625 40.796875 30.597656 Z M 69.121094 54.246094 C 66.527344 54.28125 63.488281 54.828125 61.164062 56.441406 C 60.449219 56.941406 60.554688 57.636719 61.347656 57.542969 C 63.964844 57.230469 69.75 56.5 70.789062 57.816406 C 71.828125 59.136719 69.636719 64.554688 68.664062 66.980469 C 68.363281 67.710938 69.011719 67.992188 69.679688 67.4375 C 74.035156 63.828125 75.199219 56.34375 74.308594 55.246094 C 73.867188 54.710938 71.722656 54.207031 69.121094 54.246094 Z M 0.894531 55.617188 C 0.351562 55.6875 0.136719 56.390625 0.710938 56.902344 C 10.390625 65.558594 23.160156 70.742188 37.371094 70.742188 C 47.507812 70.742188 59.339844 67.601562 67.460938 61.667969 C 68.800781 60.683594 67.628906 59.164062 66.257812 59.742188 C 57.152344 63.566406 47.207031 65.425781 38.207031 65.425781 C 24.863281 65.425781 11.988281 61.820312 1.542969 55.800781 C 1.3125 55.671875 1.074219 55.597656 0.894531 55.617188 Z M 0.894531 55.617188 " fill-opacity="1" fill-rule="nonzero"/></svg>