<?xml version="1.0" encoding="UTF-8"?><svg xmlns="http://www.w3.org/2000/svg" xmlns:xlink="http://www.w3.org/1999/xlink" width="75" zoomAndPan="magnify" viewBox="0 0 75 74.999997" height="74.999997" preserveAspectRatio="xMidYMid meet" version="1.0"><path fill="rgb(16.079712%, 12.939453%, 12.159729%)" d="M 62.5 0 L 12.5 0 C 5.609375 0 0 5.609375 0 12.5 L 0 62.5 C 0 69.390625 5.609375 75 12.5 75 L 62.5 75 C 69.390625 75 75 69.390625 75 62.5 L 75 12.5 C 75 5.609375 69.390625 0 62.5 0 Z M 41.6875 63.664062 C 40.9375 65.820312 38.878906 66.667969 37.5 66.667969 C 36.121094 66.667969 34.0625 65.820312 33.3125 63.664062 C 32.5625 61.503906 31.25 54.035156 31.25 49.023438 C 31.25 44.015625 35.683594 43.75 37.5 43.75 C 39.316406 43.75 43.75 44.019531 43.75 49.023438 C 43.75 54.035156 42.433594 61.503906 41.6875 63.664062 Z M 32.292969 34.375 C 32.292969 31.5 34.625 29.167969 37.5 29.167969 C 40.375 29.167969 42.707031 31.5 42.707031 34.375 C 42.707031 37.25 40.375 39.582031 37.5 39.582031 C 34.625 39.582031 32.292969 37.25 32.292969 34.375 Z M 37.5 22.917969 C 30.609375 22.917969 25 28.523438 25 35.417969 C 25 38.765625 26.339844 41.800781 28.496094 44.046875 C 27.757812 45.277344 27.320312 46.742188 27.179688 48.398438 C 23.339844 45.339844 20.832031 40.691406 20.832031 35.417969 C 20.832031 26.226562 28.308594 18.75 37.5 18.75 C 46.691406 18.75 54.167969 26.226562 54.167969 35.417969 C 54.167969 40.691406 51.660156 45.339844 47.824219 48.398438 C 47.683594 46.746094 47.242188 45.277344 46.507812 44.046875 C 48.660156 41.800781 50 38.765625 50 35.417969 C 50 28.523438 44.390625 22.917969 37.5 22.917969 Z M 47.222656 58.449219 C 47.4375 56.800781 47.621094 55.101562 47.742188 53.445312 C 54.035156 49.855469 58.332031 43.164062 58.332031 35.417969 C 58.332031 23.929688 48.988281 14.582031 37.5 14.582031 C 26.011719 14.582031 16.667969 23.929688 16.667969 35.417969 C 16.667969 43.164062 20.964844 49.855469 27.257812 53.445312 C 27.382812 55.101562 27.5625 56.800781 27.777344 58.449219 C 18.808594 54.648438 12.5 45.757812 12.5 35.417969 C 12.5 21.628906 23.710938 10.417969 37.5 10.417969 C 51.289062 10.417969 62.5 21.628906 62.5 35.417969 C 62.5 45.757812 56.191406 54.648438 47.222656 58.449219 Z M 47.222656 58.449219 " fill-opacity="1" fill-rule="nonzero"/></svg>