<?xml version="1.0" encoding="UTF-8"?><svg xmlns="http://www.w3.org/2000/svg" xmlns:xlink="http://www.w3.org/1999/xlink" contentScriptType="text/ecmascript" width="375" zoomAndPan="magnify" contentStyleType="text/css" viewBox="0 0 375 374.999991" height="374.999991" preserveAspectRatio="xMidYMid meet" version="1.0"><path fill="rgb(95.289612%, 93.728638%, 91.369629%)" d="M 312.5 0 L 62.5 0 C 28.042969 0 0 28.042969 0 62.5 L 0 312.5 C 0 346.957031 28.042969 375 62.5 375 L 312.5 375 C 346.957031 375 375 346.957031 375 312.5 L 375 62.5 C 375 28.042969 346.957031 0 312.5 0 Z M 208.4375 318.3125 C 204.6875 329.105469 194.394531 333.332031 187.5 333.332031 C 180.605469 333.332031 170.3125 329.105469 166.5625 318.3125 C 162.8125 307.519531 156.25 270.167969 156.25 245.125 C 156.25 220.082031 178.417969 218.75 187.5 218.75 C 196.582031 218.75 218.75 220.105469 218.75 245.125 C 218.75 270.167969 212.167969 307.519531 208.4375 318.3125 Z M 161.457031 171.875 C 161.457031 157.5 173.125 145.832031 187.5 145.832031 C 201.875 145.832031 213.542969 157.5 213.542969 171.875 C 213.542969 186.25 201.875 197.917969 187.5 197.917969 C 173.125 197.917969 161.457031 186.25 161.457031 171.875 Z M 187.5 114.582031 C 153.042969 114.582031 125 142.625 125 177.082031 C 125 193.832031 131.707031 209 142.480469 220.230469 C 138.792969 226.394531 136.605469 233.707031 135.894531 242 C 116.707031 226.707031 104.167969 203.457031 104.167969 177.082031 C 104.167969 131.125 141.542969 93.75 187.5 93.75 C 233.457031 93.75 270.832031 131.125 270.832031 177.082031 C 270.832031 203.457031 258.292969 226.707031 239.125 242 C 238.417969 233.730469 236.207031 226.394531 232.542969 220.230469 C 243.292969 209 250 193.832031 250 177.082031 C 250 142.625 221.957031 114.582031 187.5 114.582031 Z M 236.105469 292.25 C 237.1875 284 238.105469 275.5 238.707031 267.230469 C 270.167969 249.269531 291.667969 215.8125 291.667969 177.082031 C 291.667969 119.644531 244.9375 72.917969 187.5 72.917969 C 130.0625 72.917969 83.332031 119.644531 83.332031 177.082031 C 83.332031 215.8125 104.832031 249.269531 136.292969 267.230469 C 136.917969 275.5 137.8125 284 138.894531 292.25 C 94.042969 273.25 62.5 228.792969 62.5 177.082031 C 62.5 108.144531 118.5625 52.082031 187.5 52.082031 C 256.4375 52.082031 312.5 108.144531 312.5 177.082031 C 312.5 228.792969 280.957031 273.25 236.105469 292.25 Z M 236.105469 292.25 " fill-opacity="1" fill-rule="nonzero"/></svg>