<?xml version="1.0" encoding="UTF-8"?><svg xmlns="http://www.w3.org/2000/svg" xmlns:xlink="http://www.w3.org/1999/xlink" width="75" zoomAndPan="magnify" viewBox="0 0 75 74.999997" height="74.999997" preserveAspectRatio="xMidYMid meet" version="1.0"><path fill="rgb(88.62915%, 0%, 16.859436%)" d="M 68.183594 0 L 6.816406 0 C 3.050781 0 0 3.050781 0 6.816406 L 0 68.183594 C 0 71.949219 3.050781 75 6.816406 75 L 40.910156 75 L 40.910156 44.316406 L 30.683594 44.316406 L 30.683594 34.089844 L 40.910156 34.089844 L 40.910156 28.597656 C 40.910156 18.199219 45.976562 13.636719 54.617188 13.636719 C 58.753906 13.636719 60.945312 13.941406 61.980469 14.082031 L 61.980469 23.863281 L 56.085938 23.863281 C 52.417969 23.863281 51.136719 25.800781 51.136719 29.71875 L 51.136719 34.089844 L 61.886719 34.089844 L 60.429688 44.316406 L 51.136719 44.316406 L 51.136719 75 L 68.183594 75 C 71.949219 75 75 71.949219 75 68.183594 L 75 6.816406 C 75 3.050781 71.945312 0 68.183594 0 Z M 68.183594 0 " fill-opacity="1" fill-rule="nonzero"/></svg>