<?xml version="1.0" encoding="UTF-8"?><svg xmlns="http://www.w3.org/2000/svg" xmlns:xlink="http://www.w3.org/1999/xlink" width="75" zoomAndPan="magnify" viewBox="0 0 75 74.999997" height="74.999997" preserveAspectRatio="xMidYMid meet" version="1.0"><path fill="rgb(19.999695%, 77.249146%, 69.018555%)" d="M 32.8125 70.296875 C 32.8125 70.300781 32.8125 70.304688 32.8125 70.3125 C 32.8125 72.898438 34.914062 75 37.5 75 C 40.085938 75 42.179688 72.910156 42.1875 70.328125 L 42.1875 65.203125 C 42.1875 62.640625 40.09375 60.515625 37.5 60.515625 L 37.5 60.484375 C 34.90625 60.484375 32.8125 62.578125 32.8125 65.171875 Z M 32.8125 70.296875 " fill-opacity="1" fill-rule="nonzero"/><path fill="rgb(19.999695%, 77.249146%, 69.018555%)" d="M 32.8125 51.117188 C 32.8125 53.703125 34.914062 55.804688 37.5 55.804688 C 40.085938 55.804688 42.1875 53.703125 42.1875 51.117188 L 42.1875 23.867188 C 42.1875 21.273438 40.09375 19.179688 37.5 19.179688 L 37.5 19.148438 C 34.90625 19.148438 32.8125 21.273438 32.8125 23.835938 Z M 32.8125 51.117188 " fill-opacity="1" fill-rule="nonzero"/><path fill="rgb(19.999695%, 77.249146%, 69.018555%)" d="M 58.8125 38.742188 C 58.8125 36.148438 56.71875 34.054688 54.125 34.054688 C 51.53125 34.054688 49.4375 36.179688 49.4375 38.742188 L 49.4375 55.394531 C 49.4375 57.980469 51.539062 60.082031 54.125 60.082031 C 56.710938 60.082031 58.8125 57.980469 58.8125 55.394531 Z M 58.8125 38.742188 " fill-opacity="1" fill-rule="nonzero"/><path fill="rgb(19.999695%, 77.249146%, 69.018555%)" d="M 16.1875 55.363281 C 16.1875 57.949219 18.289062 60.050781 20.875 60.050781 C 23.460938 60.050781 25.5625 57.949219 25.5625 55.363281 L 25.5625 50.300781 C 25.5625 47.707031 23.46875 45.613281 20.875 45.613281 L 20.875 45.582031 C 18.28125 45.582031 16.1875 47.675781 16.1875 50.269531 Z M 16.1875 55.363281 " fill-opacity="1" fill-rule="nonzero"/><path fill="rgb(19.999695%, 77.249146%, 69.018555%)" d="M 37.5 14.464844 C 40.085938 14.464844 42.1875 12.367188 42.1875 9.777344 L 42.1875 4.6875 C 42.1875 2.09375 40.09375 0 37.5 0 C 34.90625 0 32.8125 2.09375 32.8125 4.6875 L 32.8125 9.78125 C 32.8125 12.367188 34.914062 14.464844 37.5 14.464844 Z M 37.5 14.464844 " fill-opacity="1" fill-rule="nonzero"/><path fill="rgb(19.999695%, 77.249146%, 69.018555%)" d="M 20.875 41.023438 C 23.460938 41.023438 25.5625 38.921875 25.5625 36.335938 L 25.5625 19.558594 C 25.5625 16.964844 23.46875 14.871094 20.875 14.871094 L 20.875 14.902344 C 18.28125 14.902344 16.1875 16.996094 16.1875 19.589844 L 16.1875 36.335938 C 16.1875 38.921875 18.289062 41.023438 20.875 41.023438 Z M 20.875 41.023438 " fill-opacity="1" fill-rule="nonzero"/><path fill="rgb(19.999695%, 77.249146%, 69.018555%)" d="M 58.8125 19.589844 C 58.8125 16.996094 56.71875 14.902344 54.125 14.902344 C 51.53125 14.902344 49.4375 16.996094 49.4375 19.589844 L 49.4375 24.714844 C 49.4375 27.304688 51.539062 29.402344 54.125 29.402344 C 56.710938 29.402344 58.8125 27.304688 58.8125 24.714844 Z M 58.8125 19.589844 " fill-opacity="1" fill-rule="nonzero"/><path fill="rgb(19.999695%, 77.249146%, 69.018555%)" d="M 70.3125 30.242188 C 67.71875 30.242188 65.625 32.335938 65.625 34.929688 L 65.625 40.023438 C 65.625 42.613281 67.726562 44.710938 70.3125 44.710938 C 72.898438 44.710938 75 42.613281 75 40.023438 L 75 34.929688 C 75 32.335938 72.90625 30.242188 70.3125 30.242188 Z M 70.3125 30.242188 " fill-opacity="1" fill-rule="nonzero"/><path fill="rgb(19.999695%, 77.249146%, 69.018555%)" d="M 4.6875 44.710938 C 7.273438 44.710938 9.375 42.609375 9.375 40.023438 L 9.375 34.929688 C 9.375 32.335938 7.28125 30.242188 4.6875 30.242188 C 2.09375 30.242188 0 32.335938 0 34.929688 L 0 40.023438 C 0 42.609375 2.101562 44.710938 4.6875 44.710938 Z M 4.6875 44.710938 " fill-opacity="1" fill-rule="nonzero"/></svg>