<?xml version="1.0" encoding="UTF-8"?><svg xmlns="http://www.w3.org/2000/svg" xmlns:xlink="http://www.w3.org/1999/xlink" width="75" zoomAndPan="magnify" viewBox="0 0 75 74.999997" height="74.999997" preserveAspectRatio="xMidYMid meet" version="1.0"><path fill="rgb(19.999695%, 77.249146%, 69.018555%)" d="M 21.867188 0 C 9.808594 0 0 9.820312 0 21.882812 L 0 53.132812 C 0 65.191406 9.820312 75 21.882812 75 L 53.132812 75 C 65.191406 75 75 65.179688 75 53.117188 L 75 21.867188 C 75 9.808594 65.179688 0 53.117188 0 Z M 59.375 12.5 C 61.101562 12.5 62.5 13.898438 62.5 15.625 C 62.5 17.351562 61.101562 18.75 59.375 18.75 C 57.648438 18.75 56.25 17.351562 56.25 15.625 C 56.25 13.898438 57.648438 12.5 59.375 12.5 Z M 37.5 18.75 C 47.839844 18.75 56.25 27.160156 56.25 37.5 C 56.25 47.839844 47.839844 56.25 37.5 56.25 C 27.160156 56.25 18.75 47.839844 18.75 37.5 C 18.75 27.160156 27.160156 18.75 37.5 18.75 Z M 37.5 25 C 36.679688 25 35.867188 25.078125 35.0625 25.238281 C 34.257812 25.398438 33.476562 25.636719 32.714844 25.953125 C 31.957031 26.265625 31.238281 26.652344 30.554688 27.105469 C 29.871094 27.5625 29.242188 28.082031 28.660156 28.660156 C 28.082031 29.242188 27.5625 29.871094 27.105469 30.554688 C 26.652344 31.238281 26.265625 31.957031 25.953125 32.714844 C 25.636719 33.476562 25.398438 34.257812 25.238281 35.0625 C 25.078125 35.867188 25 36.679688 25 37.5 C 25 38.320312 25.078125 39.132812 25.238281 39.9375 C 25.398438 40.742188 25.636719 41.523438 25.953125 42.285156 C 26.265625 43.042969 26.652344 43.761719 27.105469 44.445312 C 27.5625 45.128906 28.082031 45.757812 28.660156 46.339844 C 29.242188 46.917969 29.871094 47.4375 30.554688 47.894531 C 31.238281 48.347656 31.957031 48.734375 32.714844 49.046875 C 33.476562 49.363281 34.257812 49.601562 35.0625 49.761719 C 35.867188 49.921875 36.679688 50 37.5 50 C 38.320312 50 39.132812 49.921875 39.9375 49.761719 C 40.742188 49.601562 41.523438 49.363281 42.285156 49.046875 C 43.042969 48.734375 43.761719 48.347656 44.445312 47.894531 C 45.128906 47.4375 45.757812 46.917969 46.339844 46.339844 C 46.917969 45.757812 47.4375 45.128906 47.894531 44.445312 C 48.347656 43.761719 48.734375 43.042969 49.046875 42.285156 C 49.363281 41.523438 49.601562 40.742188 49.761719 39.9375 C 49.921875 39.132812 50 38.320312 50 37.5 C 50 36.679688 49.921875 35.867188 49.761719 35.0625 C 49.601562 34.257812 49.363281 33.476562 49.046875 32.714844 C 48.734375 31.957031 48.347656 31.238281 47.894531 30.554688 C 47.4375 29.871094 46.917969 29.242188 46.339844 28.660156 C 45.757812 28.082031 45.128906 27.5625 44.445312 27.105469 C 43.761719 26.652344 43.042969 26.265625 42.285156 25.953125 C 41.523438 25.636719 40.742188 25.398438 39.9375 25.238281 C 39.132812 25.078125 38.320312 25 37.5 25 Z M 37.5 25 " fill-opacity="1" fill-rule="nonzero"/></svg>