<?xml version="1.0" encoding="UTF-8"?><svg xmlns="http://www.w3.org/2000/svg" xmlns:xlink="http://www.w3.org/1999/xlink" width="224.87999" zoomAndPan="magnify" viewBox="0 0 224.87999 225" height="225" preserveAspectRatio="xMidYMid meet" version="1.0"><defs><clipPath id="clip-0"><path d="M 0 0.0585938 L 221.882812 0.0585938 L 221.882812 224.9375 L 0 224.9375 Z M 0 0.0585938 " clip-rule="nonzero"/></clipPath></defs><path fill="rgb(88.62915%, 0%, 16.859436%)" d="M 180.28125 34.007812 L 180.414062 34.058594 L 180.382812 34.023438 L 180.25 33.921875 C 180.289062 33.980469 180.246094 33.953125 180.28125 34.007812 " fill-opacity="1" fill-rule="nonzero"/><g clip-path="url(#clip-0)"><path fill="rgb(88.62915%, 0%, 16.859436%)" d="M 116.082031 202.847656 C 116.207031 202.828125 116.328125 202.8125 116.453125 202.792969 C 118.382812 202.597656 120.625 202.371094 122.867188 202.144531 C 123.234375 202.070312 123.609375 202.007812 123.976562 201.9375 C 128.234375 201.871094 132.417969 201.527344 136.515625 200.902344 C 135.992188 201.125 135.472656 201.359375 134.9375 201.609375 C 134.296875 201.878906 133.683594 202.15625 133.050781 202.421875 C 127.421875 203.042969 121.742188 203.183594 116.082031 202.847656 Z M 52.101562 173.027344 C 48.878906 170.769531 46.46875 168.472656 43.199219 165.265625 C 42.082031 164.242188 40.988281 162.164062 40.410156 160.960938 C 39.867188 159.71875 39.851562 159.246094 40.371094 159.589844 C 41.050781 160.035156 41.996094 160.984375 43.390625 162.84375 C 45.136719 164.929688 47.066406 166.847656 48.84375 168.828125 C 51.558594 171.601562 53.980469 173.1875 55.238281 173.765625 C 55.453125 173.867188 55.71875 174.015625 56 174.175781 L 56.207031 174.40625 C 57.261719 175.59375 58.519531 176.570312 59.664062 177.660156 L 61.503906 179.339844 C 60.625 178.863281 59.5 178.132812 58.300781 177.324219 C 55.675781 175.730469 53.589844 173.71875 52.101562 173.027344 Z M 38.007812 158.195312 C 37.347656 157.691406 36.445312 156.171875 35.882812 154.808594 C 35.699219 154.378906 35.714844 154.179688 35.640625 153.878906 C 35.828125 154.074219 35.976562 154.175781 36.207031 154.492188 C 36.855469 155.324219 37.410156 156.507812 37.910156 157.414062 C 38.273438 158.09375 38.320312 158.472656 38.007812 158.195312 Z M 33.746094 156.085938 C 33.519531 155.675781 33.273438 155.078125 33.085938 154.628906 C 33.03125 154.5 33.148438 154.582031 33.195312 154.566406 C 33.472656 154.867188 33.84375 155.425781 34.320312 156.421875 C 34.433594 156.664062 34.542969 156.957031 34.566406 157.074219 C 34.640625 157.453125 34.269531 157.039062 33.746094 156.085938 Z M 29.453125 149.59375 C 29.316406 149.332031 28.921875 148.292969 28.851562 148 C 28.777344 147.683594 28.871094 147.578125 29.019531 147.820312 C 29.300781 148.269531 29.671875 149.035156 30.007812 149.667969 C 30.117188 150.214844 30.378906 150.964844 30.316406 150.878906 C 30.054688 150.660156 29.785156 150.191406 29.453125 149.59375 Z M 108.742188 6.855469 C 111.027344 6.652344 113.53125 6.597656 116.011719 6.460938 C 116.394531 6.445312 117.191406 6.527344 117.703125 6.578125 C 117.910156 6.597656 117.875 6.65625 117.949219 6.699219 C 117.738281 6.773438 117.699219 6.867188 117.285156 6.917969 C 114.507812 7.320312 111.332031 7.332031 107.53125 7.8125 C 107.273438 7.847656 106.730469 7.882812 106.582031 7.871094 C 106.210938 7.835938 105.714844 7.800781 105.742188 7.730469 C 105.851562 7.457031 107.003906 7.140625 108.742188 6.855469 Z M 110.484375 5.816406 C 110.652344 5.828125 110.917969 5.84375 111.140625 5.859375 C 111.03125 5.882812 110.964844 5.925781 110.800781 5.929688 C 110.625 5.917969 110.363281 5.898438 110.136719 5.886719 C 110.246094 5.859375 110.316406 5.820312 110.484375 5.816406 Z M 149.773438 16.5625 C 149.925781 16.597656 150.308594 16.765625 150.589844 16.875 C 150.6875 16.953125 150.90625 17.09375 150.847656 17.101562 C 150.785156 17.109375 150.46875 17.027344 150.261719 16.9375 C 149.421875 16.578125 149.222656 16.421875 149.773438 16.5625 Z M 156.308594 19.972656 C 156.726562 20.144531 157.339844 20.476562 157.933594 20.828125 C 157.699219 20.738281 157.464844 20.644531 157.234375 20.558594 C 155.945312 20.066406 154.667969 19.578125 153.40625 19.09375 C 154.359375 19.371094 155.332031 19.613281 156.308594 19.972656 Z M 162.761719 22.277344 C 163.992188 22.839844 165.09375 23.519531 165.96875 24.320312 C 166.1875 24.503906 166.390625 24.683594 166.585938 24.859375 C 166.074219 24.617188 165.566406 24.378906 165.070312 24.121094 C 164.082031 23.640625 163.101562 23.164062 162.125 22.6875 C 161.871094 22.507812 161.628906 22.328125 161.433594 22.152344 C 160.726562 21.566406 161.289062 21.5625 162.761719 22.277344 Z M 172.804688 27.519531 C 173.773438 28.234375 174.757812 28.964844 175.773438 29.714844 C 176.847656 30.527344 177.863281 31.421875 178.71875 32.269531 C 179.101562 32.675781 179.480469 33.046875 179.84375 33.425781 L 179.449219 33.128906 L 177.125 31.367188 C 176.355469 30.773438 175.585938 30.179688 174.742188 29.691406 C 173.710938 29.058594 172.601562 28.375 171.480469 27.6875 C 171.230469 27.410156 170.976562 27.132812 170.753906 26.859375 C 170.121094 26.101562 170.804688 26.328125 172.804688 27.519531 Z M 179.046875 31.261719 C 179.289062 31.394531 179.917969 31.855469 180.324219 32.199219 C 181.175781 32.878906 181.480469 33.535156 181.023438 33.191406 C 180.789062 33.011719 180.191406 32.554688 179.757812 32.222656 C 178.953125 31.515625 178.539062 30.988281 179.046875 31.261719 Z M 187.1875 37.613281 C 189 39.167969 190.496094 41.140625 192.183594 42.902344 L 190.28125 41.746094 C 188.886719 40.261719 187.851562 39.25 186.046875 37.558594 C 185.710938 37.230469 185.148438 36.539062 185.109375 36.414062 C 184.9375 35.886719 185.851562 36.410156 187.1875 37.613281 Z M 192.355469 43.09375 C 192.734375 42.898438 194.523438 44.070312 196.699219 47.007812 C 197.90625 48.578125 198.976562 50.1875 200.117188 51.976562 C 200.730469 52.894531 201.238281 53.578125 201.484375 53.816406 C 201.644531 53.953125 201.757812 53.980469 201.859375 53.992188 C 202.128906 54.023438 202.644531 54.582031 203.5625 56.144531 C 205.09375 58.84375 206.566406 60.792969 207.460938 62.238281 C 207.589844 62.429688 208.035156 63.445312 208.214844 63.933594 C 208.394531 64.4375 208.527344 64.984375 208.507812 65.125 C 208.457031 65.53125 208.269531 65.632812 208.222656 66.050781 C 208.136719 66.804688 207.8125 66.78125 206.289062 63.449219 C 205.828125 62.40625 205.304688 61.601562 204.800781 61.011719 C 204.492188 60.617188 204.242188 60.355469 203.996094 60.105469 C 203.097656 58.605469 202.203125 57.101562 201.242188 55.640625 L 197.019531 50.015625 L 195.949219 48.617188 L 194.761719 47.316406 L 194.394531 46.917969 C 194.300781 46.277344 193.644531 44.957031 192.339844 43.074219 Z M 211.136719 68.914062 C 211.414062 69.335938 211.804688 70.007812 212.066406 70.785156 C 212.171875 71.0625 212.320312 71.8125 212.449219 72.34375 C 212.375 72.683594 212.105469 72.261719 211.613281 70.898438 C 211.460938 70.445312 211.164062 69.574219 211.050781 69.246094 C 210.957031 68.90625 211 68.699219 211.136719 68.914062 Z M 168.742188 26.730469 L 168.15625 26.371094 C 167.128906 25.804688 166.078125 25.285156 165.023438 24.769531 C 164.367188 24.21875 163.652344 23.726562 162.980469 23.277344 C 164.394531 23.949219 165.789062 24.648438 167.167969 25.386719 C 167.632812 25.808594 168.113281 26.238281 168.742188 26.730469 Z M 184.640625 37.277344 C 185.558594 37.992188 186.488281 38.835938 187.425781 39.789062 C 186.496094 38.953125 185.566406 38.121094 184.640625 37.277344 Z M 192.425781 47.554688 C 192.941406 48.136719 193.5 48.796875 194.078125 49.492188 C 193.742188 49.101562 193.257812 48.554688 192.878906 48.136719 C 192.59375 47.824219 192.300781 47.5 192.007812 47.179688 C 192.148438 47.308594 192.28125 47.421875 192.425781 47.554688 Z M 157.796875 22.972656 C 157.359375 22.824219 157.007812 22.730469 156.9375 22.730469 C 156.832031 22.730469 157.230469 22.90625 157.871094 23.160156 C 157.933594 23.289062 158.015625 23.425781 158.109375 23.574219 C 157.183594 23.265625 156.316406 22.984375 155.488281 22.710938 C 155.191406 22.597656 154.882812 22.5 154.582031 22.386719 C 154.683594 22.199219 154.386719 21.828125 153.660156 21.265625 C 154.332031 21.515625 155.007812 21.761719 155.683594 22.011719 C 156.363281 22.277344 157.058594 22.507812 157.75 22.753906 C 157.753906 22.820312 157.769531 22.894531 157.796875 22.972656 Z M 166.695312 27.726562 C 166.554688 27.660156 166.59375 27.753906 166.671875 27.871094 C 165.832031 27.414062 164.988281 26.960938 164.128906 26.527344 C 164.847656 26.851562 165.558594 27.167969 166.292969 27.496094 C 166.625 27.65625 166.945312 27.828125 167.261719 28.007812 C 167.074219 27.914062 166.882812 27.824219 166.695312 27.726562 Z M 160.511719 24.597656 C 160.59375 24.558594 160.703125 24.535156 160.847656 24.53125 C 161.121094 24.667969 161.398438 24.808594 161.675781 24.941406 C 162.78125 25.484375 164.128906 26.148438 164.402344 26.339844 C 164.757812 26.597656 163.214844 25.855469 162.199219 25.378906 C 161.613281 25.117188 161.058594 24.855469 160.511719 24.597656 Z M 163.121094 25.25 C 163.535156 25.515625 162.613281 25.085938 161.703125 24.660156 C 161.957031 24.726562 162.261719 24.832031 162.59375 24.957031 C 162.832031 25.082031 163.019531 25.183594 163.121094 25.25 Z M 128.011719 14.636719 C 128.082031 14.628906 128.148438 14.621094 128.226562 14.613281 C 129.300781 14.550781 130.675781 14.695312 132.585938 15.03125 C 131.066406 14.863281 129.542969 14.730469 128.011719 14.636719 Z M 89.125 22.535156 L 86.742188 23.171875 C 86.511719 23.226562 86.253906 23.253906 86.164062 23.246094 C 86.078125 23.234375 86.121094 23.148438 86.238281 23.109375 C 86.734375 22.941406 87.523438 22.671875 87.753906 22.636719 C 88.324219 22.550781 88.695312 22.554688 89.125 22.535156 Z M 68.964844 33.46875 C 68.96875 33.464844 68.972656 33.464844 68.972656 33.460938 C 69.769531 32.867188 70.570312 32.28125 71.414062 31.761719 C 70.8125 32.105469 70.234375 32.496094 69.660156 32.898438 C 70.867188 31.929688 72.210938 31.003906 74.34375 29.707031 C 75.464844 29.046875 76.390625 28.304688 77.148438 27.890625 C 78.484375 27.039062 80.199219 26.199219 82.734375 25.199219 C 85.953125 23.988281 88.125 23.351562 89.324219 22.492188 C 90.316406 22.09375 91.296875 21.699219 92.265625 21.3125 C 93.265625 21.023438 94.25 20.738281 95.222656 20.457031 C 97.167969 19.859375 99.058594 19.28125 100.886719 18.722656 C 102.15625 18.492188 103.386719 18.21875 104.597656 17.9375 C 104.648438 17.929688 104.703125 17.921875 104.757812 17.917969 C 105.671875 17.78125 106.570312 17.640625 106.992188 17.53125 C 106.90625 17.507812 106.417969 17.570312 105.824219 17.652344 C 107.121094 17.347656 108.378906 17.0625 109.609375 16.816406 C 109.984375 16.769531 110.382812 16.71875 110.8125 16.660156 C 111.9375 16.503906 113.21875 16.289062 114.550781 16.269531 C 116.042969 16.1875 117.539062 16.105469 119.03125 16.023438 C 119.660156 16.023438 120.023438 16.015625 120.183594 15.960938 C 120.53125 15.941406 120.882812 15.921875 121.230469 15.902344 C 122.34375 15.796875 123.453125 15.867188 124.5625 15.921875 C 125.667969 15.96875 126.769531 16.015625 127.867188 16.066406 L 131.46875 16.222656 C 132.671875 16.273438 133.851562 16.539062 135.039062 16.695312 C 137.402344 17.082031 139.785156 17.347656 142.082031 17.863281 C 144.523438 18.546875 146.972656 19.121094 149.386719 19.816406 C 149.535156 19.960938 149.832031 20.171875 150.316406 20.472656 C 150.925781 20.851562 150.4375 20.800781 149.691406 20.566406 C 145.53125 19.058594 141.109375 18.484375 136.757812 17.5625 C 133.761719 17.242188 130.648438 16.859375 128.507812 16.808594 C 128.386719 16.820312 128.253906 16.824219 128.128906 16.835938 C 126.277344 16.722656 124.417969 16.648438 122.539062 16.648438 C 102.042969 16.648438 83.117188 23.324219 67.777344 34.605469 C 68.171875 34.230469 68.570312 33.847656 68.964844 33.46875 Z M 30.09375 98.816406 C 30.0625 99.105469 30.019531 99.398438 29.988281 99.6875 C 29.988281 99.667969 29.988281 99.65625 29.992188 99.636719 C 30.007812 99.433594 30.046875 99.113281 30.09375 98.816406 Z M 30.347656 100.941406 C 30.285156 101.085938 30.222656 101.207031 30.164062 101.359375 C 30.042969 101.390625 29.976562 101.152344 29.960938 100.6875 C 30.046875 99.804688 30.148438 98.925781 30.273438 98.046875 C 30.457031 97.585938 30.59375 97.617188 30.65625 98.089844 C 30.539062 99.035156 30.433594 99.984375 30.347656 100.941406 Z M 195.878906 48.945312 C 197.390625 50.898438 198.949219 52.960938 200.480469 55.058594 L 201.324219 56.226562 L 202.066406 57.464844 L 203.054688 59.105469 C 201.835938 57.734375 200.539062 55.875 198.597656 53.292969 C 197.566406 52.007812 196.691406 51.0625 195.695312 49.855469 C 195.601562 49.726562 195.511719 49.601562 195.417969 49.472656 C 195.300781 49.332031 195.171875 49.195312 195.050781 49.054688 C 194.628906 48.515625 194.179688 47.914062 193.679688 47.210938 C 193.710938 47.203125 193.734375 47.179688 193.792969 47.214844 C 194.082031 47.382812 194.273438 47.40625 194.363281 47.300781 C 194.867188 47.847656 195.382812 48.40625 195.878906 48.945312 Z M 180.382812 34.023438 L 183.179688 36.167969 C 185.285156 37.933594 187.308594 39.792969 189.242188 41.742188 C 190.285156 42.929688 191.347656 44.230469 192.441406 45.640625 C 192.800781 46.105469 193.191406 46.546875 193.523438 47.03125 C 193.40625 46.996094 193.257812 46.921875 193.097656 46.824219 C 192.949219 46.65625 192.796875 46.488281 192.65625 46.324219 C 189.171875 42.101562 185 38.269531 180.488281 34.722656 C 180.621094 34.691406 180.589844 34.492188 180.28125 34.007812 C 179.824219 33.777344 179.441406 33.660156 179.472656 33.921875 C 177.792969 32.632812 176.070312 31.378906 174.316406 30.164062 L 172.621094 29.121094 C 172.597656 29.074219 172.585938 29.042969 172.546875 28.988281 C 172.300781 28.640625 172.019531 28.308594 171.734375 27.984375 C 174.617188 29.738281 177.410156 31.636719 180.082031 33.6875 C 180.179688 33.800781 180.289062 33.902344 180.382812 34.023438 Z M 158.996094 21.507812 C 159.378906 21.769531 159.667969 22 159.734375 22.109375 C 159.757812 22.152344 159.792969 22.203125 159.824219 22.253906 C 158.238281 21.558594 156.589844 20.996094 154.960938 20.382812 C 152.683594 19.539062 150.421875 18.632812 148.03125 18.113281 C 146.792969 17.746094 145.539062 17.410156 144.273438 17.097656 C 144.359375 16.96875 144.6875 16.917969 145.226562 16.964844 C 149.929688 18.117188 154.53125 19.644531 158.996094 21.507812 Z M 49 167.917969 C 48.90625 167.847656 48.835938 167.832031 48.71875 167.699219 C 48.628906 167.570312 48.457031 167.328125 48.320312 167.136719 C 48.414062 167.203125 48.484375 167.21875 48.605469 167.351562 C 48.695312 167.484375 48.863281 167.722656 49 167.917969 Z M 62.230469 179.695312 L 61.203125 178.753906 C 59.753906 177.429688 58.304688 176.101562 56.863281 174.78125 C 56.800781 174.71875 56.742188 174.652344 56.679688 174.589844 C 56.832031 174.683594 56.96875 174.765625 57.136719 174.871094 C 58.839844 176.570312 60.597656 178.214844 62.425781 179.777344 C 62.367188 179.753906 62.296875 179.726562 62.230469 179.695312 Z M 213.542969 83.101562 C 214.027344 85.128906 214.589844 87.453125 214.546875 87.742188 C 214.492188 88.128906 213.671875 84.953125 213.09375 82.910156 C 212.875 82.148438 212.859375 82.164062 212.953125 82.554688 C 213.503906 84.691406 214.042969 86.765625 214.570312 88.804688 L 214.957031 90.320312 L 215.191406 91.859375 C 215.347656 92.878906 215.503906 93.890625 215.660156 94.894531 C 215.960938 95.722656 216.109375 96.140625 216.324219 97.199219 C 216.421875 97.730469 216.542969 98.417969 216.71875 99.398438 C 216.757812 99.761719 216.792969 100.183594 216.820312 100.636719 C 216.597656 100.40625 216.367188 100.253906 216.128906 100.246094 C 215.769531 100.230469 215.425781 100.886719 215.101562 102.753906 C 215.046875 103.046875 215 103.351562 214.949219 103.652344 C 213.546875 80.386719 203.542969 59.464844 188.109375 43.957031 C 188.976562 44.59375 189.898438 45.324219 190.925781 46.210938 C 191.59375 46.9375 192.289062 47.691406 193.027344 48.507812 C 193.78125 49.324219 194.769531 50.429688 194.464844 49.964844 C 195.636719 51.398438 196.921875 53.054688 198.367188 55.0625 C 199.535156 57.042969 200.546875 58.414062 200.925781 58.460938 C 200.996094 58.46875 201.085938 58.511719 201.183594 58.574219 C 201.371094 58.851562 201.542969 59.109375 201.695312 59.304688 C 202.183594 59.960938 202.777344 60.855469 203.480469 61.964844 C 204.160156 63.082031 205.066406 64.34375 205.765625 65.945312 C 206.53125 67.515625 207.296875 69.082031 208.058594 70.644531 C 208.429688 71.429688 208.847656 72.191406 209.179688 72.992188 L 210.09375 75.425781 C 210.457031 76.398438 210.652344 76.828125 210.667969 76.738281 C 210.6875 76.65625 210.484375 76.019531 210.175781 75.128906 C 210.078125 74.855469 209.964844 74.535156 209.871094 74.265625 L 209.320312 72.789062 C 209.121094 72.308594 208.871094 71.84375 208.648438 71.375 C 208.195312 70.4375 207.742188 69.5 207.292969 68.570312 C 206.84375 67.636719 206.394531 66.707031 205.949219 65.78125 L 205.28125 64.394531 L 204.492188 63.078125 C 204.042969 62.328125 203.597656 61.582031 203.152344 60.835938 C 203.339844 61.09375 203.535156 61.359375 203.738281 61.644531 C 204.628906 62.746094 205.070312 63.75 205.839844 64.941406 C 206.398438 65.980469 207.089844 67.265625 207.726562 68.464844 C 209.035156 70.601562 210 74.691406 210.816406 76.027344 C 210.917969 76.195312 211.011719 76.339844 211.101562 76.472656 L 211.265625 76.886719 C 211.230469 76.777344 211.203125 76.671875 211.171875 76.570312 C 211.363281 76.835938 211.539062 77.035156 211.707031 77.199219 C 211.738281 77.289062 211.769531 77.375 211.796875 77.460938 C 212.4375 79.335938 213.164062 81.175781 213.542969 83.101562 Z M 67.605469 210.34375 C 67.238281 210.34375 65.6875 209.605469 64.414062 208.820312 C 63.054688 207.984375 62.273438 207.347656 62.558594 207.324219 C 62.84375 207.304688 64.410156 208.0625 65.8125 208.898438 C 67.199219 209.722656 67.972656 210.339844 67.605469 210.34375 Z M 22.203125 69.980469 C 22.03125 70.457031 21.675781 71.277344 21.441406 71.734375 C 21.203125 72.195312 20.921875 72.613281 20.820312 72.671875 C 20.558594 72.828125 20.726562 72.089844 21.128906 70.949219 C 21.296875 70.46875 21.644531 69.632812 21.871094 69.195312 C 22.097656 68.753906 22.269531 68.613281 22.460938 68.34375 C 22.632812 68.382812 22.644531 68.757812 22.203125 69.980469 Z M 21.648438 131.582031 C 21.496094 131.667969 21.140625 130.675781 20.882812 129.421875 C 20.632812 128.207031 20.417969 126.5 20.480469 126.066406 C 20.550781 125.585938 20.664062 125.304688 20.726562 125.058594 C 20.917969 125.332031 21.023438 125.449219 21.136719 125.648438 C 21.351562 126.011719 21.757812 127.960938 21.835938 128.964844 C 21.972656 130.65625 21.890625 131.449219 21.648438 131.582031 Z M 19.007812 83.90625 C 18.910156 84.582031 18.777344 85.507812 18.671875 86.261719 C 18.558594 86.648438 18.457031 87.003906 18.414062 87.144531 C 18.351562 87.285156 18.285156 87.34375 18.285156 87.214844 C 18.335938 85.703125 18.152344 84.261719 18.90625 81.621094 C 19.03125 81.121094 19.3125 80.246094 19.492188 79.792969 C 19.648438 79.417969 19.90625 79.085938 19.867188 79.292969 C 19.597656 80.746094 19.308594 82.296875 19.007812 83.90625 Z M 19.105469 121.144531 C 19.078125 121.4375 18.949219 121.488281 18.890625 121.175781 C 18.304688 117.785156 17.382812 114.191406 17.160156 111.144531 C 17.113281 110.765625 17.113281 109.957031 17.097656 109.328125 C 17.066406 108.1875 17.25 106.273438 17.390625 106.175781 C 17.46875 106.289062 17.574219 106.183594 17.617188 106.554688 C 18.007812 110.257812 18.226562 114.558594 19.0625 119.453125 C 19.117188 119.855469 19.136719 120.835938 19.105469 121.144531 Z M 221.6875 121.578125 L 220.933594 115.792969 C 220.65625 113.859375 220.527344 111.578125 220.089844 110.113281 C 219.757812 109.085938 219.441406 107.953125 219.125 106.671875 C 218.429688 103.824219 217.699219 101.605469 216.890625 100.699219 C 216.675781 97.699219 216.15625 94.921875 215.832031 92.203125 C 215.636719 90.785156 215.671875 90.589844 215.890625 91.707031 C 216.09375 92.828125 216.355469 94.230469 216.621094 95.699219 C 216.46875 94.53125 216.308594 93.355469 216.15625 92.207031 C 216 91.058594 215.878906 89.933594 215.597656 88.902344 C 214.863281 85.789062 214.226562 83.015625 213.367188 80.542969 C 213.015625 79.714844 212.632812 78.742188 212.230469 77.695312 C 212.335938 77.796875 212.449219 77.910156 212.566406 78.046875 C 213.078125 78.675781 213.660156 79.3125 214.175781 80.160156 C 214.421875 80.585938 214.742188 81.507812 215.074219 82.953125 L 215.980469 87.003906 C 216.808594 90.332031 216.996094 92.792969 217.570312 94.628906 C 217.855469 95.789062 218.21875 97.273438 218.53125 98.558594 C 218.808594 99.675781 219.039062 99.992188 219.261719 100.023438 C 219.75 100.101562 219.90625 98.226562 219.714844 94.367188 L 219.746094 94.511719 C 219.484375 92.972656 219.238281 91.324219 219.097656 89.421875 C 218.136719 84.253906 217.339844 79.402344 215.542969 74.917969 C 214.703125 72.675781 214.054688 70.382812 213.058594 68.226562 C 212.050781 66.074219 211.042969 63.921875 210.023438 61.75 C 208.351562 58.167969 206.125 54.917969 204.222656 51.605469 C 201.980469 48.503906 199.769531 45.464844 197.453125 42.667969 C 194.21875 39.175781 190.941406 35.304688 186.886719 31.554688 C 183.824219 28.261719 180.410156 25.996094 177.992188 24.433594 C 177.472656 24.082031 176.597656 23.488281 175.890625 23.007812 C 174.75 22.363281 173.578125 21.492188 172.320312 20.363281 C 171.378906 19.515625 170.019531 18.5625 169.617188 18.488281 C 168.371094 18.152344 165.21875 16.78125 161.898438 15.253906 L 161.105469 14.898438 C 159.710938 14.253906 158.246094 13.476562 156.511719 12.746094 C 155.679688 12.367188 154.378906 11.851562 153.835938 11.699219 C 149.859375 10.386719 144.417969 9.253906 140.191406 8.449219 C 138.265625 8.214844 136.078125 7.945312 133.785156 7.664062 C 131.503906 7.351562 129.132812 6.984375 126.777344 7 C 125.640625 6.960938 123.667969 6.609375 123.636719 6.4375 C 123.484375 5.667969 125.121094 4.761719 132.207031 5.621094 L 135.023438 6.050781 C 138.253906 6.515625 140.5625 6.695312 142.042969 6.832031 C 143.324219 6.878906 144.355469 6.824219 146.898438 7.367188 C 150.40625 7.953125 153.492188 9.136719 156.980469 10.175781 C 160.09375 11.097656 161.785156 11.695312 163.476562 12.128906 C 164.117188 12.300781 163.78125 11.917969 162.917969 11.285156 C 161.671875 10.328125 160.035156 9.277344 157.820312 8.433594 C 151.773438 5.75 145.324219 3.648438 139.125 2.34375 C 131.675781 0.902344 123.964844 0.0546875 116.296875 0.242188 C 109.671875 0.214844 102.933594 1.101562 97.285156 2.265625 C 95.574219 2.699219 93.539062 3.21875 91.601562 3.714844 C 88.664062 4.335938 85.789062 5.289062 82.945312 6.367188 C 81.246094 6.972656 80.449219 7.054688 79.457031 7.210938 C 78.707031 7.328125 77.21875 7.792969 76.769531 8.132812 C 76.429688 8.347656 75.769531 8.6875 75.746094 8.777344 C 75.542969 9.480469 72.71875 10.953125 69.058594 12.75 C 66.042969 14.46875 63.578125 16.222656 61.019531 17.890625 C 59.226562 19.042969 57.601562 20.414062 55.191406 21.792969 C 53.125 23.058594 51.570312 24.160156 50.5625 25.308594 C 49.898438 25.996094 49.550781 26.480469 49.222656 26.941406 C 48.777344 27.566406 48.082031 28.367188 46.632812 29.582031 C 42.679688 32.832031 40.640625 35.765625 39.351562 37.628906 C 38.933594 38.265625 37.929688 39.441406 37.238281 40.558594 C 35.089844 43.871094 32.761719 46.878906 30.859375 50.601562 C 29.898438 52.273438 28.886719 54.03125 27.859375 55.820312 C 26.988281 57.6875 26.101562 59.585938 25.226562 61.464844 C 25.117188 61.703125 24.484375 62.679688 24.304688 62.882812 C 23.6875 63.570312 23.65625 63.183594 23.84375 62.449219 C 24.304688 60.683594 25.191406 58.261719 26.28125 55.550781 C 26.804688 54.355469 27.765625 53 28.878906 51.40625 C 31.816406 47.300781 31.78125 47.265625 31.703125 46.359375 C 31.695312 46.242188 31.671875 46.125 31.867188 45.792969 C 32.054688 45.476562 32.496094 44.855469 32.871094 44.414062 L 34.976562 42.046875 C 36.339844 40.496094 37.328125 39.050781 36.894531 39.246094 C 36.550781 39.398438 36.089844 39.691406 35.667969 39.941406 C 35.105469 40.273438 34.921875 40.15625 35.671875 39.011719 C 37.5 36.292969 39.777344 33.792969 41.910156 31.074219 C 42.152344 30.800781 42.910156 30.007812 43.421875 29.660156 C 43.957031 29.304688 44.308594 29.070312 44.820312 28.730469 C 45.292969 28.402344 45.972656 27.921875 46.332031 27.609375 C 46.71875 27.265625 47.023438 26.890625 47.039062 26.785156 C 47.074219 26.429688 46.945312 26.207031 46.933594 25.894531 C 46.914062 25.550781 47.742188 24.59375 49.515625 23.082031 C 51.882812 21.195312 53.882812 19.855469 55.179688 18.582031 C 55.882812 17.933594 57.332031 16.808594 58.617188 15.898438 C 60.523438 14.730469 62.597656 13.460938 64.488281 12.300781 C 68.324219 9.933594 68.679688 9.378906 65.453125 10.488281 C 64.523438 10.847656 63.492188 11.246094 62.476562 11.640625 C 60.605469 12.445312 58.234375 13.386719 55.910156 14.949219 C 54.644531 15.804688 53.332031 16.691406 52.128906 17.503906 C 47.796875 20.324219 43.976562 23.96875 40.074219 27.332031 C 36.527344 31.074219 32.882812 34.617188 30.167969 38.570312 C 28.855469 40.449219 26.933594 42.457031 25.644531 44.648438 C 23.828125 47.585938 21.789062 50.414062 20.253906 53.421875 C 18.753906 56.449219 17.230469 59.351562 16.058594 62.179688 C 14.714844 66.171875 12.890625 70.113281 11.9375 74.34375 C 10.949219 78.210938 9.800781 82.039062 9.371094 85.914062 C 8.75 89.75 8.226562 93.480469 8.265625 97.035156 C 8.160156 100.527344 8.011719 104.082031 8.386719 107.691406 C 8.625 111.296875 8.777344 114.949219 9.503906 118.582031 C 9.964844 121.144531 10.222656 123.816406 10.859375 126.480469 C 11.523438 129.136719 12.199219 131.847656 12.878906 134.585938 C 13.339844 136.582031 14.054688 138.160156 14.605469 139.417969 C 15.328125 140.929688 16.167969 142.925781 17 144.988281 C 19.308594 149.511719 21.414062 154.28125 24.394531 158.53125 C 25.007812 159.484375 25.683594 160.546875 26.351562 161.726562 C 28.40625 165.320312 30.339844 167.226562 31.84375 168.949219 C 32.894531 170.132812 34.382812 171.921875 35.734375 173.078125 C 37.210938 174.433594 39.171875 177.035156 40.882812 178.808594 C 41.820312 179.640625 42.761719 180.480469 43.589844 181.214844 C 47.46875 184.769531 51.84375 187.714844 55.410156 189.902344 C 57.816406 191.351562 60.839844 192.808594 63.667969 194.382812 C 64.441406 194.84375 65.652344 195.570312 66.765625 196.074219 C 69.203125 196.6875 72.34375 198.09375 75.730469 199.101562 C 78.390625 199.863281 81.121094 200.640625 83.859375 201.421875 C 86.636719 201.929688 89.421875 202.4375 92.152344 202.933594 C 96.53125 203.464844 101.222656 203.882812 104.007812 203.574219 C 104.414062 203.511719 104.917969 203.449219 105.636719 203.457031 C 109.433594 203.472656 112.105469 203.402344 115.222656 202.972656 C 115.246094 202.976562 115.265625 202.976562 115.289062 202.976562 C 117.921875 203.085938 120.558594 203.320312 123.191406 203.328125 C 125.824219 203.207031 128.457031 203.085938 131.085938 202.964844 C 131.328125 202.9375 131.566406 202.90625 131.808594 202.878906 C 129.679688 203.515625 127.132812 204.148438 123.542969 204.753906 C 120.773438 205.066406 118.566406 205.320312 116.46875 205.554688 C 115.25 205.707031 113.984375 205.859375 112.675781 206.019531 C 111.355469 206.019531 109.980469 206.019531 108.550781 206.019531 C 105.675781 205.980469 102.519531 206.011719 99.109375 205.351562 C 97.097656 205.046875 95.179688 204.8125 93.699219 204.703125 C 91.566406 204.496094 90.132812 204.3125 86.835938 203.445312 C 86.082031 203.238281 85.480469 203.195312 85.234375 203.238281 C 84.414062 203.386719 82.746094 203.167969 80.597656 202.449219 C 79.203125 202.023438 77.699219 201.558594 76.839844 201.425781 C 74.328125 201.160156 70.425781 199.4375 66.546875 197.722656 C 63.203125 196.410156 60.109375 194.277344 56.824219 192.539062 C 53.632812 190.648438 50.734375 188.410156 47.867188 186.566406 C 47.230469 186.15625 46.503906 185.457031 45.847656 184.90625 C 42.867188 182.277344 39.65625 179.828125 36.992188 176.824219 C 35.804688 175.589844 34.675781 174.488281 33.386719 173.019531 C 30.585938 169.480469 28.433594 166.765625 26.226562 163.976562 C 23.570312 159.847656 20.546875 155.816406 18.421875 151.347656 C 17.910156 150.386719 17.417969 149.515625 16.980469 148.800781 C 15.472656 146.558594 14.300781 143.628906 12.992188 140.480469 C 11.570312 137.363281 10.527344 133.886719 9.582031 130.402344 C 8.308594 126.546875 7.644531 122.238281 6.941406 118.511719 C 6.410156 116.105469 6.03125 113.585938 5.898438 110.976562 C 5.699219 108.378906 5.457031 105.714844 5.332031 103.027344 C 5.503906 97.671875 5.390625 92.191406 6.203125 87.089844 C 6.277344 86.523438 6.375 85.839844 6.457031 85.226562 C 6.921875 80.277344 8.40625 75.640625 9.507812 70.632812 C 10.46875 67.714844 10.996094 65.828125 11.042969 64.761719 C 11.105469 63.5 11.171875 62.234375 11.121094 61.226562 C 11.09375 60.75 10.519531 61.523438 9.699219 63.070312 C 9.109375 64.191406 8.386719 65.621094 7.792969 66.980469 C 4.867188 74.078125 2.714844 81.484375 1.679688 88.710938 C 0.875 92.316406 0.871094 96.277344 0.484375 100.121094 C 0.117188 103.210938 0.320312 106.261719 0.367188 109.269531 C 0.457031 112.277344 0.457031 115.25 0.949219 118.160156 C 1.820312 126.15625 3.460938 134.304688 6.089844 142.058594 C 6.683594 143.820312 7.296875 145.644531 7.914062 147.46875 C 8.140625 148.183594 8.363281 149 8.695312 149.722656 C 9.289062 151.152344 9.652344 152.378906 9.550781 152.664062 C 9.34375 153.25 9.574219 153.929688 10.90625 156.644531 C 11.359375 157.542969 11.765625 158.34375 12.222656 159.242188 C 12.722656 160.195312 13.355469 161.402344 13.496094 161.972656 C 13.632812 162.484375 13.625 162.75 13.839844 163.386719 C 13.953125 163.726562 14.40625 164.679688 14.714844 165.246094 C 15.039062 165.839844 15.476562 166.519531 15.679688 166.769531 C 16.03125 167.195312 16.292969 167.417969 16.492188 167.535156 C 17.632812 168.292969 19.824219 170.664062 23.625 175.644531 C 25.003906 177.5625 26.363281 178.898438 27.902344 180.511719 C 28.742188 181.4375 29.734375 182.535156 30.6875 183.589844 C 31.632812 184.683594 33.210938 186.730469 34 187.710938 C 34.210938 188 34.066406 188.066406 33.785156 187.816406 C 32.796875 186.980469 31.777344 185.921875 30.828125 184.777344 C 29.503906 183.257812 28.484375 182.191406 27.816406 181.691406 C 27.441406 181.40625 27.128906 181.214844 26.832031 181.035156 C 26.226562 180.621094 24.984375 179.609375 23.496094 177.449219 C 22.820312 176.519531 22.164062 175.613281 21.554688 174.765625 C 20.507812 173.359375 20.421875 173.816406 21.371094 175.464844 C 22.136719 176.78125 22.980469 178.171875 23.925781 179.347656 C 24.878906 180.378906 25.707031 181.273438 26.589844 182.222656 L 30.910156 186.804688 C 32.394531 188.289062 34.03125 189.628906 35.609375 191.054688 C 35.875 191.289062 36.574219 192.101562 37.003906 192.59375 C 37.171875 192.789062 37.28125 192.992188 37.195312 192.945312 C 36.855469 192.769531 36.582031 192.679688 36.007812 192.214844 C 33.542969 190.160156 30.773438 188.097656 28.550781 185.742188 C 27.601562 184.8125 26.773438 184.070312 26.019531 183.425781 C 25.769531 183.210938 25.730469 183.363281 25.957031 183.730469 C 26.351562 184.359375 27.011719 185.351562 27.605469 186.078125 C 30.371094 189.742188 33.835938 192.625 36.765625 195.476562 C 44.371094 201.902344 52.949219 208.226562 62.207031 212.636719 C 76.152344 219.632812 91.019531 223.488281 105.445312 224.398438 C 112.488281 224.949219 118.84375 224.472656 125.6875 223.867188 C 134.945312 222.707031 143.273438 220.765625 151.1875 217.730469 C 153.597656 216.796875 155.925781 215.90625 158.1875 214.941406 C 160.375 213.816406 162.542969 212.703125 164.734375 211.578125 C 166.949219 210.511719 169.097656 209.273438 171.234375 207.847656 C 173.390625 206.460938 175.667969 205.125 177.96875 203.582031 C 178.488281 203.171875 178.914062 202.839844 179.371094 202.476562 C 187.78125 196.289062 194.925781 188.660156 201.273438 180.707031 C 206.117188 174.042969 210.402344 167.292969 213.785156 159.734375 C 216.785156 153.527344 218.375 147.808594 219.960938 142.082031 C 220.757812 138.144531 221.25 134.941406 221.554688 132.089844 C 221.621094 129.570312 221.6875 126.898438 221.753906 124.375 C 221.769531 123.3125 221.71875 122.472656 221.6875 121.578125 " fill-opacity="1" fill-rule="nonzero"/></g><path fill="rgb(88.62915%, 0%, 16.859436%)" d="M 66.839844 196.128906 L 66.90625 196.140625 L 66.898438 196.136719 L 66.765625 196.074219 L 66.71875 196.058594 L 66.839844 196.128906 " fill-opacity="1" fill-rule="nonzero"/><path fill="rgb(88.62915%, 0%, 16.859436%)" d="M 65.933594 196.144531 C 66.34375 196.433594 66.898438 196.835938 67.359375 197.085938 C 68.734375 197.84375 69.933594 198.304688 69.671875 198.011719 C 69.394531 197.695312 68.488281 197.136719 67.601562 196.597656 L 66.839844 196.128906 C 66.503906 196.074219 66.164062 196.015625 65.867188 195.964844 C 65.773438 195.953125 65.765625 196.023438 65.933594 196.144531 " fill-opacity="1" fill-rule="nonzero"/><path fill="rgb(88.62915%, 0%, 16.859436%)" d="M 10.121094 158.371094 C 10.070312 158.324219 10.148438 158.621094 10.171875 158.765625 C 10.320312 159.09375 10.527344 159.550781 10.605469 159.722656 C 10.957031 160.316406 10.902344 160.023438 10.476562 159.011719 C 10.371094 158.757812 10.175781 158.421875 10.121094 158.371094 " fill-opacity="1" fill-rule="nonzero"/><path fill="rgb(88.62915%, 0%, 16.859436%)" d="M 41.820312 33 L 42.183594 32.550781 L 41.578125 33.117188 Z M 41.820312 33 " fill-opacity="1" fill-rule="nonzero"/><path fill="rgb(88.62915%, 0%, 16.859436%)" d="M 199.597656 53.339844 L 199.199219 52.710938 L 199.230469 52.910156 Z M 199.597656 53.339844 " fill-opacity="1" fill-rule="nonzero"/><path fill="rgb(88.62915%, 0%, 16.859436%)" d="M 121.785156 16.175781 C 121.867188 16.171875 121.953125 16.167969 122.039062 16.167969 C 122.023438 16.167969 122.011719 16.164062 122 16.164062 C 121.925781 16.167969 121.859375 16.171875 121.785156 16.175781 " fill-opacity="1" fill-rule="nonzero"/><path fill="rgb(88.62915%, 0%, 16.859436%)" d="M 148.710938 20.035156 C 145.960938 19.332031 143.230469 18.46875 140.429688 17.90625 C 137.601562 17.464844 134.765625 17.019531 131.921875 16.574219 C 129.042969 16.425781 126.15625 16.273438 123.257812 16.125 C 122.851562 16.125 122.441406 16.15625 122.039062 16.167969 C 124.5 16.195312 126.945312 16.410156 129.339844 16.539062 C 135.789062 17.039062 142.335938 18.269531 148.710938 20.035156 " fill-opacity="1" fill-rule="nonzero"/><path fill="rgb(88.62915%, 0%, 16.859436%)" d="M 121.785156 16.175781 C 119.375 16.242188 116.957031 16.410156 114.527344 16.523438 C 116.953125 16.40625 119.378906 16.289062 121.785156 16.175781 " fill-opacity="1" fill-rule="nonzero"/></svg>