<?xml version="1.0" encoding="UTF-8"?><svg xmlns="http://www.w3.org/2000/svg" xmlns:xlink="http://www.w3.org/1999/xlink" width="75" zoomAndPan="magnify" viewBox="0 0 75 74.999997" height="74.999997" preserveAspectRatio="xMidYMid meet" version="1.0"><path fill="rgb(88.62915%, 0%, 16.859436%)" d="M 37.5 0 C 16.898438 0 0 16.898438 0 37.5 C 0 58.101562 16.898438 75 37.5 75 C 58.101562 75 75 58.101562 75 37.5 C 75 16.898438 58.300781 0 37.5 0 Z M 54.75 54.199219 C 54 55.300781 52.699219 55.699219 51.550781 54.949219 C 42.75 49.5 31.699219 48.398438 18.550781 51.398438 C 17.25 51.800781 16.101562 50.851562 15.75 49.699219 C 15.351562 48.398438 16.300781 47.25 17.449219 46.898438 C 31.699219 43.699219 44.101562 45 53.851562 51 C 55.148438 51.550781 55.300781 53.050781 54.75 54.199219 Z M 59.25 43.851562 C 58.300781 45.148438 56.601562 45.75 55.300781 44.800781 C 45.199219 38.601562 29.800781 36.75 18 40.5 C 16.5 40.898438 14.800781 40.101562 14.449219 38.601562 C 14.050781 37.101562 14.851562 35.398438 16.351562 35.050781 C 30 30.949219 46.898438 33 58.5 40.101562 C 59.648438 40.699219 60.199219 42.550781 59.25 43.851562 Z M 59.648438 33.398438 C 47.648438 26.300781 27.601562 25.5 16.148438 29.101562 C 14.25 29.648438 12.398438 28.550781 11.851562 26.851562 C 11.300781 24.949219 12.398438 23.101562 14.101562 22.550781 C 27.398438 18.601562 49.351562 19.351562 63.199219 27.601562 C 64.898438 28.550781 65.449219 30.800781 64.5 32.449219 C 63.550781 33.75 61.300781 34.300781 59.648438 33.398438 Z M 59.648438 33.398438 " fill-opacity="1" fill-rule="nonzero"/></svg>